<?xml version="1.0" standalone="no"?><!DOCTYPE svg PUBLIC "-//W3C//DTD SVG 1.1//EN" "http://www.w3.org/Graphics/SVG/1.1/DTD/svg11.dtd"><svg t="1741146005883" class="icon" viewBox="0 0 1024 1024" version="1.1" xmlns="http://www.w3.org/2000/svg" p-id="5614" xmlns:xlink="http://www.w3.org/1999/xlink" width="200" height="200"><path d="M928 160h-832C78.293333 160 64 174.293333 64 192v640c0 17.706667 14.293333 32 32 32h832c17.706667 0 32-14.293333 32-32V192c0-17.706667-14.293333-32-32-32z m-40 110.805333v521.194667H136V270.805333l-27.605333-21.504 39.296-50.496 42.816 33.28h643.093333l42.794667-33.28 39.296 50.496-27.690667 21.504z m-54.4-38.805333L512 482.005333 190.4 232l-42.794667-33.28-39.296 50.474667L135.893333 270.72l341.610667 265.6a56 56 0 0 0 68.693333 0l341.802667-265.493333 27.605333-21.504-39.296-50.496-42.709333 33.194666z" fill="#000000" p-id="5615"></path></svg>