<?xml version="1.0" standalone="no"?><!DOCTYPE svg PUBLIC "-//W3C//DTD SVG 1.1//EN" "http://www.w3.org/Graphics/SVG/1.1/DTD/svg11.dtd"><svg t="1741231890877" class="icon" viewBox="0 0 1024 1024" version="1.1" xmlns="http://www.w3.org/2000/svg" p-id="2348" xmlns:xlink="http://www.w3.org/1999/xlink" width="200" height="200"><path d="M213.333333 170.666667h426.666667v170.666666h170.666667v512H213.333333V170.666667zM170.581333 85.333333A42.453333 42.453333 0 0 0 128 127.658667v768.682666a42.666667 42.666667 0 0 0 42.368 42.325334h683.264A42.666667 42.666667 0 0 0 896 895.658667V298.666667l-213.333333-213.333334H170.581333zM448 320c0 67.285333-19.456 146.645333-52.266667 219.861333-32.938667 73.514667-77.397333 136.405333-123.733333 173.482667l50.346667 68.821333c124.885333-83.285333 263.168-140.373333 396.928-121.258666l19.541333-82.730667C624.810667 540.202667 533.333333 426.24 533.333333 320h-85.333333z m25.6 254.805333c11.392-25.472 21.504-51.882667 30.037333-78.634666a412.16 412.16 0 0 0 72.789334 83.882666c-41.898667 7.509333-82.944 19.84-122.666667 35.541334 7.04-13.397333 13.653333-27.008 19.84-40.789334z" fill="#000000" p-id="2349"></path></svg>