<?xml version="1.0" standalone="no"?><!DOCTYPE svg PUBLIC "-//W3C//DTD SVG 1.1//EN" "http://www.w3.org/Graphics/SVG/1.1/DTD/svg11.dtd"><svg t="1741247032198" class="icon" viewBox="0 0 1024 1024" version="1.1" xmlns="http://www.w3.org/2000/svg" p-id="5282" xmlns:xlink="http://www.w3.org/1999/xlink" width="200" height="200"><path d="M848.3 434.9L713 570c-35.1 35.1-92.1 35.1-127.2 0l-38.1-38.1 114.4-114.4c14-14.2 14-36.9 0-50.9s-36.9-14-50.9 0L496.7 481l-38.1-38.1c-35.1-35.1-35.1-92.1 0-127.2l135.1-135.3c35.3-35.1 92.1-35.1 127.2 0l127.4 127.4c35.1 35 35.1 91.8 0 127.1zM534.9 748.2L399.7 883.5c-35.3 35.1-92.1 35.1-127.2 0L145.1 756.1c-35.1-35.1-35.1-92 0-127.2l135.3-135.1c35.1-35.1 92.1-35.1 127.2 0l38.1 38.1-114.4 114.4c-14 14.2-14 36.9 0 50.9 7 7 16.2 10.6 25.4 10.6s18.5-3.6 25.6-10.6l114.4-114.5 38.1 38.2c35.2 35.2 35.2 92.2 0.1 127.3z" fill="#221714" p-id="5283"></path></svg>